# Blender v2.76 (sub 0) OBJ File: 'ExportAll.blend'
# www.blender.org
mtllib Tomb Chest.mtl
o polygon2.156
v -1.699951 0.376221 1.000000
v -1.699951 1.100098 1.000000
v -2.000000 0.376221 1.000000
v -1.699951 1.899902 1.000000
v -2.000000 2.652344 1.000000
v -1.699951 2.652344 1.000000
v -2.000000 3.000000 1.000000
v 0.000000 3.000000 1.000000
v 2.000000 3.000000 1.000000
v 1.699951 2.652344 1.000000
v 2.000000 2.652344 1.000000
v 1.699951 1.899902 1.000000
v 2.000000 0.376221 1.000000
v 1.699951 1.100098 1.000000
v 1.699951 0.376221 1.000000
v 2.000000 3.000000 -1.000000
v 2.000000 3.000000 1.000000
v 2.000000 0.000000 -1.000000
v 2.000000 2.652344 1.000000
v 2.000000 0.376221 1.000000
v -2.000000 3.000000 -1.000000
v 0.000000 3.000000 -1.000000
v -2.000000 0.000000 -1.000000
v 0.000000 0.000000 -1.000000
v -2.000000 3.000000 -1.000000
v -2.000000 0.000000 -1.000000
v -2.000000 3.000000 1.000000
v -2.000000 2.652344 1.000000
v 2.000000 0.376221 1.000000
v 1.699951 0.376221 1.000000
v 2.000000 -0.000000 1.000000
v 1.699951 -0.000000 1.000000
v -1.699951 0.376221 1.000000
v -2.000000 0.376221 1.000000
v -1.699951 -0.000000 1.000000
v -2.000000 -0.000000 1.000000
v 1.699951 0.376221 1.000000
v -1.699951 0.376221 1.000000
v 1.699951 -0.000000 1.000000
v -1.699951 -0.000000 1.000000
v 2.000000 3.000000 -1.000000
v 2.000000 0.000000 -1.000000
v 0.000000 3.000000 -1.000000
v 0.000000 0.000000 -1.000000
v -2.000000 -0.000000 1.000000
v -2.000000 0.376221 1.000000
v -2.000000 0.000000 -1.000000
v -2.000000 2.652344 1.000000
v 2.000000 3.000000 1.000000
v 0.000000 3.000000 1.000000
v 1.699951 2.652344 1.000000
v -1.699951 2.652344 1.000000
v 2.000000 -0.000000 1.000000
v 2.000000 0.000000 -1.000000
v 2.000000 0.376221 1.000000
vt 0.099609 -0.763672
vt 0.099609 -0.558594
vt 0.027344 -0.763672
vt 0.099609 -0.332031
vt 0.027344 -0.117188
vt 0.099609 -0.117188
vt 0.027344 -0.019531
vt 0.476562 -0.019531
vt 0.031250 -0.019531
vt 0.097656 -0.117188
vt 0.031250 -0.117188
vt 0.097656 -0.332031
vt 0.031250 -0.763672
vt 0.097656 -0.558594
vt 0.097656 -0.763672
vt 0.703125 -0.167969
vt 0.253906 -0.167969
vt 0.703125 -0.806641
vt 0.253906 -0.244141
vt 0.253906 -0.742188
vt 0.703125 -0.166016
vt 0.253906 -0.166016
vt 0.253906 -0.806641
vt 0.083984 -0.679688
vt 0.142578 -0.679688
vt 0.083984 -0.763672
vt 0.142578 -0.763672
vt 0.144531 -0.679688
vt 0.080078 -0.679688
vt 0.144531 -0.763672
vt 0.080078 -0.763672
vt 0.814453 -0.822266
vt 0.144531 -0.822266
vt 0.814453 -0.953125
vt 0.144531 -0.953125
vt 0.925781 -0.019531
vt 0.861328 -0.117188
vn 0.000000 -0.000000 1.000000
vn 1.000000 0.000000 0.000000
vn 0.000000 0.000000 -1.000000
vn -1.000000 0.000000 0.000000
usemtl phong3.016
s 1
f 1/1/1 2/2/1 3/3/1
f 2/2/1 4/4/1 3/3/1
f 3/3/1 4/4/1 5/5/1
f 4/4/1 6/6/1 5/5/1
f 5/5/1 6/6/1 7/7/1
f 6/6/1 8/8/1 7/7/1
f 9/9/1 10/10/1 11/11/1
f 10/10/1 12/12/1 11/11/1
f 11/11/1 12/12/1 13/13/1
f 12/12/1 14/14/1 13/13/1
f 13/13/1 14/14/1 15/15/1
f 16/16/2 17/17/2 18/18/2
f 17/17/2 19/19/2 18/18/2
f 18/18/2 19/19/2 20/20/2
f 21/21/3 22/22/3 23/18/3
f 22/22/3 24/23/3 23/18/3
f 25/16/4 26/18/4 27/17/4
f 26/18/4 28/19/4 27/17/4
f 29/24/1 30/25/1 31/26/1
f 30/25/1 32/27/1 31/26/1
f 33/28/1 34/29/1 35/30/1
f 34/29/1 36/31/1 35/30/1
f 37/32/1 38/33/1 39/34/1
f 38/33/1 40/35/1 39/34/1
f 41/21/3 42/18/3 43/22/3
f 42/18/3 44/23/3 43/22/3
f 45/23/4 46/20/4 47/18/4
f 46/20/4 48/19/4 47/18/4
f 49/36/1 50/8/1 51/37/1
f 50/8/1 52/6/1 51/37/1
f 53/23/2 54/18/2 55/20/2
o polygon4.099
v 1.500000 1.300049 -0.499267
v 0.000000 1.300049 -0.499267
v 1.500000 1.300049 0.800537
v 0.000000 1.300049 0.800537
v 1.500000 1.899902 -0.499267
v 1.500000 1.300049 -0.499267
v 1.500000 1.899902 0.800537
v 1.500000 1.300049 0.800537
v 1.690674 1.899902 1.000000
v 1.699951 1.100098 1.000000
v 1.699951 1.899902 -0.699951
v 1.699951 1.100098 -0.699951
v -1.509277 1.899902 0.800537
v -1.500000 1.300049 0.800537
v -1.500000 1.899902 -0.499267
v -1.500000 1.300049 -0.499267
v 1.500000 1.899902 -0.499267
v 0.000000 1.899902 -0.499267
v 1.500000 1.300049 -0.499267
v 0.000000 1.300049 -0.499267
v -1.509277 1.899902 0.800537
v 1.500000 1.899902 0.800537
v -1.500000 1.300049 0.800537
v 0.000000 1.300049 0.800537
v 1.690674 1.899902 1.000000
v 1.699951 1.899902 -0.699951
v 1.500000 1.899902 0.800537
v 1.500000 1.899902 -0.499267
v -1.709229 1.899902 1.000000
v -1.699951 1.899902 -0.699951
v -1.699951 1.100098 1.000000
v -1.699951 1.100098 -0.699951
v -1.709229 1.899902 1.000000
v 1.690674 1.899902 1.000000
v -1.509277 1.899902 0.800537
v 1.500000 1.899902 0.800537
v -1.500000 1.300049 -0.499267
v 0.000000 1.300049 -0.499267
v -1.500000 1.899902 -0.499267
v 0.000000 1.899902 -0.499267
v -1.500000 1.300049 -0.499267
v -1.500000 1.300049 0.800537
v 0.000000 1.300049 -0.499267
v 0.000000 1.300049 0.800537
v -1.699951 1.899902 -0.699951
v -1.709229 1.899902 1.000000
v -1.500000 1.899902 -0.499267
v -1.709229 1.899902 1.000000
v -1.509277 1.899902 0.800537
v -1.500000 1.899902 -0.499267
v 1.500000 1.899902 0.800537
v 1.500000 1.300049 0.800537
v 0.000000 1.300049 0.800537
vt 0.253906 -0.236328
vt 0.675781 -0.236328
vt 0.253906 -0.623047
vt 0.675781 -0.623047
vt 0.748047 -0.542969
vt 0.748047 -0.646484
vt 0.453125 -0.542969
vt 0.453125 -0.646484
vt 0.679688 -0.615234
vt 0.679688 -0.251953
vt 0.250000 -0.615234
vt 0.250000 -0.251953
vt 0.429688 -0.595703
vt 0.792969 -0.595703
vt 0.429688 -0.757812
vt 0.792969 -0.757812
vt 0.443359 -0.689453
vt 0.443359 -0.722656
vt 0.501953 -0.689453
vt 0.501953 -0.707031
vt 0.148438 -0.005859
vt 0.791016 -0.005859
vt 0.224609 -0.091797
vt 0.716797 -0.091797
vt 0.082031 -0.025391
vt 0.974609 -0.025391
vt 0.134766 -0.095703
vt 0.921875 -0.095703
vt 0.800781 -0.007812
vt 0.158203 -0.007812
vt 0.724609 -0.091797
vt 0.029297 -0.039062
vt 0.134766 -0.083984
vt 0.826172 -0.083984
vt 0.501953 -0.722656
vn 0.000000 1.000000 0.000000
vn -1.000000 -0.000000 0.000000
vn 0.999900 0.011800 0.005900
vn 1.000000 0.005900 0.002000
vn 1.000000 -0.000000 0.000000
vn 0.999800 0.015600 0.007700
vn 1.000000 0.007800 0.003900
vn 0.000000 -0.000000 1.000000
vn 0.000000 0.000000 -1.000000
vn -0.999900 -0.011800 -0.006000
vn -1.000000 -0.005800 -0.002000
vn -1.000000 -0.005900 -0.002000
usemtl phong8.008
s 1
f 56/38/5 57/39/5 58/40/5
f 57/39/5 59/41/5 58/40/5
f 60/42/6 61/43/6 62/44/6
f 61/43/6 63/45/6 62/44/6
f 64/46/7 65/47/8 66/48/8
f 65/47/8 67/49/9 66/48/8
f 68/42/10 69/43/11 70/44/11
f 69/43/11 71/45/9 70/44/11
f 72/50/12 73/51/12 74/52/12
f 73/51/12 75/53/12 74/52/12
f 76/54/13 77/55/13 78/56/13
f 77/55/13 79/57/13 78/56/13
f 80/58/5 81/59/5 82/60/5
f 81/59/5 83/61/5 82/60/5
f 84/48/14 85/46/15 86/49/16
f 85/46/15 87/47/6 86/49/16
f 88/62/5 89/63/5 90/64/5
f 89/63/5 91/65/5 90/64/5
f 92/52/12 93/53/12 94/50/12
f 93/53/12 95/51/12 94/50/12
f 96/38/5 97/40/5 98/39/5
f 97/40/5 99/41/5 98/39/5
f 100/66/5 101/67/5 102/68/5
f 103/69/5 104/70/5 105/71/5
f 106/55/13 107/72/13 108/57/13
o polygon3.118
v 1.699951 1.100098 1.000000
v 1.690674 1.899902 1.000000
v -1.699951 1.100098 1.000000
v -1.709229 1.899902 1.000000
vt 0.014648 -0.984375
vt 0.014648 -0.097656
vt 0.987305 -0.984375
vt 0.987305 -0.097656
vn 0.000000 -0.000000 1.000000
usemtl phong5.011
s 1
f 109/73/17 110/74/17 111/75/17
f 110/74/17 112/76/17 111/75/17
o polygon0.187
v 1.699951 1.100098 1.000000
v -1.699951 1.100098 1.000000
v 1.699951 0.376221 1.000000
v -1.699951 0.376221 1.000000
v -1.699951 2.652344 1.000000
v -1.699951 1.899902 1.000000
v 1.699951 2.652344 1.000000
v 1.699951 1.899902 1.000000
vt 0.014648 -0.097656
vt 0.987305 -0.097656
vt 0.014648 -0.984375
vt 0.987305 -0.984375
vn 0.000000 -0.000000 1.000000
usemtl phong5.011
s 1
f 113/77/18 114/78/18 115/79/18
f 114/78/18 116/80/18 115/79/18
f 117/78/18 118/80/18 119/77/18
f 118/80/18 120/79/18 119/77/18
o polygon1.184
v -2.000000 3.000000 -1.000000
v -2.000000 3.000000 1.000000
v 0.000000 3.000000 -1.000000
v 0.000000 3.000000 1.000000
v 2.000000 3.000000 1.000000
v 2.000000 3.000000 -1.000000
v 0.000000 3.000000 -1.000000
v 2.000000 3.000000 1.000000
vt 0.632812 -0.134766
vt 0.632812 -0.953125
vt 0.109375 -0.134766
vt 0.109375 -0.953125
vn 0.000000 1.000000 0.000000
usemtl phong7.011
s 1
f 121/81/19 122/82/19 123/83/19
f 122/82/19 124/84/19 123/83/19
f 123/83/19 124/84/19 125/82/19
f 126/81/19 127/83/19 128/82/19
