# Wavefront OBJ file
# Exported by Misfit Model 3D 1.3.8
# Tue Mar 22 09:11:44 2016

mtllib treasurebox.mtl

# 60 Vertices
v -1.728193 8.037503 -5.234448
v -3.065626 6.909335 -3.923971
v -2.606833 6.82033 -4.336699
v -1.436561 7.716763 -5.412622
v 1.074439 6.1633 -4.176474
v 0.864119 6.201369 -4.557267
v -0.013413 4.946616 -3.278618
v -0.012085 4.716652 -2.685795
v -1.101416 6.168417 -4.175207
v -0.893299 6.205502 -4.556233
v -1.096973 6.766806 -3.179036
v 1.078885 6.761689 -3.180303
v 3.043503 6.89497 -3.927518
v -0.007611 9.82395 -4.91562
v -1.85063 10.204601 -5.795893
v -0.012059 9.225558 -5.911791
v 1.831589 10.195945 -5.798028
v -1.723749 8.635891 -4.238277
v 1.702964 8.029434 -5.236438
v 1.707406 8.627824 -4.240268
v 1.408792 7.710075 -5.414268
v -0.013404 8.746564 -5.999619
v -1.559447 9.599414 -5.915439
v 1.536961 9.592135 -5.917229
v 2.581746 6.808127 -4.339722
v -1.436639 7.705981 -5.430564
v -0.89338 6.194721 -4.574176
v 0.86404 6.190586 -4.57521
v 1.40871 7.69929 -5.432209
v 4.974868 5.461298 -0.787175
v 4.97775 11.620439 -4.281595
v 4.969717 10.538735 -6.082334
v 4.966839 4.379598 -2.587913
v -0.001611 11.632145 -4.278699
v -4.98097 11.643858 -4.275803
v -4.989002 10.562157 -6.076542
v -0.009641 10.550445 -6.079437
v -4.983852 5.484718 -0.781383
v -4.991879 4.403016 -2.582121
v -0.004491 5.473012 -0.784279
v -0.012521 4.391308 -2.585017
v 4.962583 0.0 -0.813656
v 4.984066 0.009947 6.076542
v 4.996138 5.47451 6.032805
v 4.974659 5.464562 -0.857393
v 0.004704 0.021663 6.079438
v -4.974655 0.033371 6.082334
v -4.962582 5.497929 6.038598
v 0.016778 5.48622 6.035702
v -4.996138 0.023421 -0.807864
v -4.984058 5.487983 -0.8516
v 4.057294 5.468203 0.165572
v 4.072399 5.4752 5.010931
v 4.06276 1.112736 5.04583
v 4.047657 1.105741 0.200471
v -4.054855 1.131824 5.050555
v -4.069958 1.124831 0.205195
v -4.045216 5.494287 5.015635
v 0.01359 5.484744 5.013283
v -4.060323 5.487291 0.170275

# 264 Texture Coordinates
vt 0.99998 0.39552
vt 0.78319 0.66016
vt 0.92381 0.41407
vt 0.78319 0.66016
vt 0.73339 0.63672
vt 0.92381 0.41407
vt 0.35156 0.35255
vt 0.32031 0.31642
vt 0.49902 0.07912
vt 0.32031 0.31642
vt 0.49902 0.00002
vt 0.49902 0.07912
vt 0.49902 0.00002
vt 0.6787 0.31544
vt 0.49902 0.07912
vt 0.6787 0.31544
vt 0.64745 0.35255
vt 0.49902 0.07912
vt 0.99998 0.39552
vt 0.6787 0.31544
vt 0.6787 0.31544
vt 0.49902 0.00002
vt 0.6787 0.31544
vt 0.6787 0.31544
vt 0.0 0.39552
vt 0.32031 0.31642
vt 0.32031 0.31642
vt 0.49902 0.00002
vt 0.32031 0.31642
vt 0.32031 0.31642
vt 0.80175 1.0
vt 0.49902 0.87793
vt 0.49902 0.87793
vt 0.19726 1.0
vt 0.49902 0.87793
vt 0.49902 0.87793
vt 0.99998 0.39552
vt 0.78319 0.66016
vt 0.78319 0.66016
vt 0.80175 1.0
vt 0.78319 0.66016
vt 0.78319 0.66016
vt 0.0 0.39552
vt 0.21582 0.66016
vt 0.21582 0.66016
vt 0.19726 1.0
vt 0.21582 0.66016
vt 0.21582 0.66016
vt 0.64745 0.35255
vt 0.73339 0.63672
vt 0.35156 0.35255
vt 0.26464 0.63672
vt 0.35156 0.35255
vt 0.73339 0.63672
vt 0.49902 0.81739
vt 0.26464 0.63672
vt 0.73339 0.63672
vt 0.75585 0.92774
vt 0.49902 0.81739
vt 0.73339 0.63672
vt 0.24316 0.92774
vt 0.26464 0.63672
vt 0.49902 0.81739
vt 0.07519 0.41407
vt 0.35156 0.35255
vt 0.26464 0.63672
vt 0.92381 0.41407
vt 0.73339 0.63672
vt 0.64745 0.35255
vt 0.49902 0.07912
vt 0.64745 0.35255
vt 0.35156 0.35255
vt 0.78319 0.66016
vt 0.80175 1.0
vt 0.75585 0.92774
vt 0.73339 0.63672
vt 0.78319 0.66016
vt 0.75585 0.92774
vt 0.21582 0.66016
vt 0.0 0.39552
vt 0.07519 0.41407
vt 0.26464 0.63672
vt 0.21582 0.66016
vt 0.07519 0.41407
vt 0.6787 0.31544
vt 0.99998 0.39552
vt 0.92381 0.41407
vt 0.64745 0.35255
vt 0.6787 0.31544
vt 0.92381 0.41407
vt 0.49902 0.87793
vt 0.49902 0.81739
vt 0.75585 0.92774
vt 0.80175 1.0
vt 0.49902 0.87793
vt 0.75585 0.92774
vt 0.21582 0.66016
vt 0.26464 0.63672
vt 0.24316 0.92774
vt 0.19726 1.0
vt 0.21582 0.66016
vt 0.24316 0.92774
vt 0.0 0.39552
vt 0.32031 0.31642
vt 0.07519 0.41407
vt 0.32031 0.31642
vt 0.35156 0.35255
vt 0.07519 0.41407
vt 0.49902 0.81739
vt 0.49902 0.87793
vt 0.24316 0.92774
vt 0.49902 0.87793
vt 0.19726 1.0
vt 0.24316 0.92774
vt 0.755289 0.989127
vt 0.901342 0.001464
vt 0.256476 0.989127
vt 0.110039 0.00002
vt 0.256476 0.989127
vt 0.901342 0.001464
vt 0.99706 0.00294
vt 0.0 0.00002
vt 0.99706 0.50977
vt 0.99706 0.50977
vt 0.0 0.00002
vt 0.0 0.50684
vt 0.99706 0.00294
vt 0.0 0.00002
vt 0.99706 0.50977
vt 0.99706 0.50977
vt 0.0 0.00002
vt 0.0 0.50684
vt 0.99706 0.00294
vt 0.0 0.00002
vt 0.99706 0.50977
vt 0.99706 0.50977
vt 0.0 0.00002
vt 0.0 0.50684
vt 0.99706 0.00294
vt 0.0 0.00002
vt 0.99706 0.50977
vt 0.99706 0.50977
vt 0.0 0.00002
vt 0.0 0.50684
vt 0.99998 0.38575
vt 0.03223 0.40138
vt 1.00291 1.0
vt 1.00291 1.0
vt 0.03223 0.40138
vt 0.00293 1.0
vt 0.0 0.00002
vt 0.99315 0.00002
vt 0.0 1.0
vt 0.0 1.0
vt 0.99315 0.00002
vt 0.99315 1.0
vt 0.0 1.0
vt 0.99315 1.0
vt 0.0 0.00002
vt 0.0 0.00002
vt 0.99315 1.0
vt 0.99315 0.00002
vt 0.0 0.50977
vt 0.99315 0.50977
vt 0.0 0.00294
vt 0.0 0.00294
vt 0.99315 0.50977
vt 0.99706 0.00294
vt 0.0 0.50684
vt 0.99706 0.50977
vt 0.0 0.00002
vt 0.0 0.00002
vt 0.99706 0.50977
vt 0.99706 0.00294
vt 0.0 1.00195
vt 0.99315 1.00195
vt -0.00781 0.37501
vt -0.00781 0.37501
vt 0.99315 1.00195
vt 0.98924 0.37501
vt 0.0 0.00002
vt 0.99998 0.00002
vt 0.0 1.0
vt 0.0 1.0
vt 0.99998 0.00002
vt 0.99998 1.0
vt 0.0 0.00002
vt 0.99998 0.00294
vt 0.0 1.0
vt 0.0 1.0
vt 0.99998 0.00294
vt 0.99998 1.00195
vt 0.99998 0.00002
vt 0.0 0.00002
vt 0.99998 1.0
vt 0.99998 1.0
vt 0.0 0.00002
vt 0.0 1.0
vt -0.00098 1.0
vt 0.99803 0.99805
vt -0.00098 0.19825
vt -0.00098 0.19825
vt 0.99803 0.99805
vt 0.99803 0.19532
vt -0.00098 1.0
vt 0.99803 0.99805
vt -0.00098 0.19825
vt -0.00098 0.19825
vt 0.99803 0.99805
vt 0.99803 0.19532
vt -0.00098 1.0
vt 0.99803 0.99805
vt -0.00098 0.19825
vt -0.00098 0.19825
vt 0.99803 0.99805
vt 0.99803 0.19532
vt -0.00098 1.0
vt 0.99803 0.99805
vt 0.07226 0.85156
vt 0.07226 0.85156
vt 0.99803 0.99805
vt 0.92674 0.85156
vt -0.00098 1.0
vt 0.99803 0.99805
vt 0.07226 0.85156
vt 0.07226 0.85156
vt 0.99803 0.99805
vt 0.99608 0.84473
vt -0.00098 1.0
vt 0.99803 0.99805
vt 0.07226 0.85156
vt 0.07226 0.85156
vt 0.99803 0.99805
vt 0.92674 0.85156
vt -0.00098 1.0
vt 0.99803 0.99805
vt 0.07226 0.85156
vt 0.07226 0.85156
vt 0.99803 0.99805
vt 0.92674 0.85156
vt -0.00098 1.0
vt 0.99803 0.99805
vt -0.00098 0.19825
vt -0.00098 0.19825
vt 0.99803 0.99805
vt 0.99803 0.19532
vt -0.00098 1.0
vt 0.99803 0.99805
vt -0.00098 0.19825
vt -0.00098 0.19825
vt 0.99803 0.99805
vt 0.99803 0.19532
vt -0.00098 1.0
vt 0.99803 0.99805
vt 0.07226 0.85156
vt 0.07226 0.85156
vt 0.99803 0.99805
vt 0.99608 0.84473
vt 0.0 1.0
vt 0.99998 1.00195
vt 0.0 0.00002
vt 0.0 0.00002
vt 0.99998 1.00195
vt 0.99998 0.00294

# 264 Vertex Normals
vn -0.804598 -0.18507 -0.564244
vn -0.815062 -0.024336 -0.578862
vn -0.522992 -0.572552 -0.631399
vn -0.815062 -0.024336 -0.578862
vn -0.270615 -0.400066 -0.875623
vn -0.522992 -0.572552 -0.631399
vn 0.209297 -0.693231 -0.689656
vn 0.545985 -0.83418 -0.077742
vn -0.002567 -0.878351 -0.478009
vn 0.545985 -0.83418 -0.077742
vn 0.412113 -0.897191 -0.158778
vn -0.002567 -0.878351 -0.478009
vn -0.41664 -0.895517 -0.156401
vn -0.549964 -0.831852 -0.074584
vn -0.002567 -0.878351 -0.478009
vn -0.549964 -0.831852 -0.074584
vn -0.25553 -0.724804 -0.639815
vn -0.002567 -0.878351 -0.478009
vn -0.331607 -0.930948 0.152883
vn -0.549964 -0.831852 -0.074584
vn -0.615862 -0.674158 0.407706
vn -0.788976 -0.614048 -0.021483
vn -0.615862 -0.674158 0.407706
vn -0.549964 -0.831852 -0.074584
vn 0.327475 -0.932704 0.151076
vn 0.614079 -0.677773 0.40439
vn 0.545985 -0.83418 -0.077742
vn 0.786215 -0.617401 -0.026109
vn 0.545985 -0.83418 -0.077742
vn 0.614079 -0.677773 0.40439
vn 0.244509 0.553423 -0.796203
vn 0.001504 0.857227 -0.514936
vn 0.000437 0.43939 -0.898297
vn -0.243138 0.555188 -0.795393
vn 0.000437 0.43939 -0.898297
vn 0.001504 0.857227 -0.514936
vn -0.779009 0.26158 -0.569843
vn -0.951374 0.265916 -0.155488
vn -0.815062 -0.024336 -0.578862
vn -0.928789 -0.141245 -0.342639
vn -0.815062 -0.024336 -0.578862
vn -0.951374 0.265916 -0.155488
vn 0.777806 0.257692 -0.573248
vn 0.812506 -0.027819 -0.582289
vn 0.951739 0.2612 -0.161144
vn 0.926432 -0.145052 -0.347394
vn 0.951739 0.2612 -0.161144
vn 0.812506 -0.027819 -0.582289
vn -0.25553 -0.724804 -0.639815
vn -0.270615 -0.400066 -0.875623
vn 0.209297 -0.693231 -0.689656
vn 0.312186 -0.381283 -0.870151
vn 0.209297 -0.693231 -0.689656
vn -0.270615 -0.400066 -0.875623
vn -0.00094 -0.139164 -0.990269
vn 0.312186 -0.381283 -0.870151
vn -0.270615 -0.400066 -0.875623
vn -0.329428 -0.068305 -0.941707
vn -0.00094 -0.139164 -0.990269
vn -0.270615 -0.400066 -0.875623
vn 0.327061 -0.069428 -0.94245
vn 0.312186 -0.381283 -0.870151
vn -0.00094 -0.139164 -0.990269
vn 0.518584 -0.574342 -0.633406
vn 0.209297 -0.693231 -0.689656
vn 0.312186 -0.381283 -0.870151
vn -0.522992 -0.572552 -0.631399
vn -0.270615 -0.400066 -0.875623
vn -0.25553 -0.724804 -0.639815
vn -0.002567 -0.878351 -0.478009
vn -0.25553 -0.724804 -0.639815
vn 0.209297 -0.693231 -0.689656
vn -0.815062 -0.024336 -0.578862
vn -0.718202 -0.018027 -0.695601
vn -0.329428 -0.068305 -0.941707
vn -0.270615 -0.400066 -0.875623
vn -0.815062 -0.024336 -0.578862
vn -0.329428 -0.068305 -0.941707
vn 0.812506 -0.027819 -0.582289
vn 0.801249 -0.188662 -0.567809
vn 0.518584 -0.574342 -0.633406
vn 0.312186 -0.381283 -0.870151
vn 0.812506 -0.027819 -0.582289
vn 0.518584 -0.574342 -0.633406
vn -0.549964 -0.831852 -0.074584
vn -0.572992 -0.794657 -0.200501
vn -0.522992 -0.572552 -0.631399
vn -0.25553 -0.724804 -0.639815
vn -0.549964 -0.831852 -0.074584
vn -0.522992 -0.572552 -0.631399
vn 0.000437 0.43939 -0.898297
vn -0.00094 -0.139164 -0.990269
vn -0.329428 -0.068305 -0.941707
vn -0.1188 0.349269 -0.929461
vn 0.000437 0.43939 -0.898297
vn -0.329428 -0.068305 -0.941707
vn 0.812506 -0.027819 -0.582289
vn 0.312186 -0.381283 -0.870151
vn 0.327061 -0.069428 -0.94245
vn 0.71545 -0.020962 -0.69835
vn 0.812506 -0.027819 -0.582289
vn 0.327061 -0.069428 -0.94245
vn 0.568348 -0.797335 -0.203069
vn 0.545985 -0.83418 -0.077742
vn 0.518584 -0.574342 -0.633406
vn 0.545985 -0.83418 -0.077742
vn 0.209297 -0.693231 -0.689656
vn 0.518584 -0.574342 -0.633406
vn -0.00094 -0.139164 -0.990269
vn 0.000437 0.43939 -0.898297
vn 0.327061 -0.069428 -0.94245
vn 0.000437 0.43939 -0.898297
vn 0.118401 0.349221 -0.92953
vn 0.327061 -0.069428 -0.94245
vn -0.001673 -0.49347 -0.869761
vn -0.001668 -0.493465 -0.869764
vn -0.001668 -0.493465 -0.869764
vn -0.001663 -0.493459 -0.869767
vn -0.001668 -0.493465 -0.869764
vn -0.001668 -0.493465 -0.869764
vn 0.999993 -0.002237 -0.003117
vn 0.999993 -0.002236 -0.003117
vn 0.999993 -0.002236 -0.003117
vn 0.999993 -0.002236 -0.003117
vn 0.999993 -0.002236 -0.003117
vn 0.999993 -0.002235 -0.003116
vn 0.001717 0.857224 -0.514941
vn 0.001717 0.857224 -0.514941
vn 0.000783 0.540689 -0.841222
vn 0.000783 0.540689 -0.841222
vn 0.001717 0.857224 -0.514941
vn 0.000035 0.254077 -0.967184
vn -0.999993 0.002235 0.003115
vn -0.999993 0.002235 0.003116
vn -0.999993 0.002235 0.003116
vn -0.999993 0.002235 0.003116
vn -0.999993 0.002235 0.003116
vn -0.999993 0.002236 0.003117
vn 0.000715 0.057438 0.998349
vn -0.000035 -0.254077 0.967184
vn -0.001717 -0.857224 0.514941
vn -0.001717 -0.857224 0.514941
vn -0.000035 -0.254077 0.967184
vn -0.001716 -0.857223 0.514942
vn 0.001666 0.493465 0.869764
vn 0.001666 0.493465 0.869764
vn 0.000715 0.057438 0.998349
vn 0.000715 0.057438 0.998349
vn 0.001666 0.493465 0.869764
vn -0.000035 -0.254077 0.967184
vn 0.000783 0.540689 -0.841222
vn 0.000035 0.254077 -0.967184
vn -0.001666 -0.493465 -0.869764
vn -0.001666 -0.493465 -0.869764
vn 0.000035 0.254077 -0.967184
vn -0.001666 -0.493465 -0.869764
vn -0.001666 -0.493465 -0.869764
vn -0.001666 -0.493465 -0.869764
vn -0.000716 -0.057438 -0.998349
vn -0.000716 -0.057438 -0.998349
vn -0.001666 -0.493465 -0.869764
vn 0.000035 0.254077 -0.967184
vn -0.000716 -0.057438 -0.998349
vn 0.000035 0.254077 -0.967184
vn 0.001716 0.857224 -0.514941
vn 0.001716 0.857224 -0.514941
vn 0.000035 0.254077 -0.967184
vn 0.001717 0.857224 -0.514941
vn -0.001716 -0.857224 0.514941
vn -0.001716 -0.857223 0.514942
vn -0.000782 -0.540689 0.841222
vn -0.000782 -0.540689 0.841222
vn -0.001716 -0.857223 0.514942
vn -0.000035 -0.254077 0.967184
vn -0.000782 -0.540689 0.841222
vn -0.000035 -0.254077 0.967184
vn 0.001666 0.493465 0.869764
vn 0.001666 0.493465 0.869764
vn -0.000035 -0.254077 0.967184
vn 0.001666 0.493465 0.869764
vn 0.999993 -0.002234 -0.003115
vn 0.999993 -0.002234 -0.003114
vn 0.999993 -0.002234 -0.003114
vn 0.999993 -0.002234 -0.003114
vn 0.999993 -0.002234 -0.003114
vn 0.999993 -0.002235 -0.003114
vn 0.0006 0.008002 0.999968
vn 0.0006 0.008002 0.999968
vn 0.0006 0.008002 0.999968
vn 0.0006 0.008002 0.999968
vn 0.0006 0.008002 0.999968
vn 0.0006 0.008002 0.999968
vn -0.999993 0.002236 0.003115
vn -0.999993 0.002235 0.003114
vn -0.999993 0.002235 0.003114
vn -0.999993 0.002235 0.003114
vn -0.999993 0.002235 0.003114
vn -0.999993 0.002234 0.003114
vn -0.0006 -0.008002 -0.999968
vn -0.0006 -0.008002 -0.999968
vn -0.0006 -0.008002 -0.999968
vn -0.0006 -0.008002 -0.999968
vn -0.0006 -0.008002 -0.999968
vn -0.000601 -0.008002 -0.999968
vn -0.999993 0.002234 0.003114
vn -0.999993 0.002234 0.003114
vn -0.999993 0.002234 0.003114
vn -0.999993 0.002234 0.003114
vn -0.999993 0.002234 0.003114
vn -0.999993 0.002234 0.003114
vn 0.002351 0.999996 -0.001451
vn 0.002351 0.999996 -0.001451
vn 0.002351 0.999996 -0.001451
vn 0.002351 0.999996 -0.001451
vn 0.002351 0.999996 -0.001451
vn 0.002351 0.999996 -0.001451
vn 0.002351 0.999996 -0.001451
vn 0.002351 0.999996 -0.001451
vn 0.002351 0.999996 -0.001451
vn 0.002351 0.999996 -0.001451
vn 0.002351 0.999996 -0.001451
vn 0.002351 0.999996 -0.00145
vn 0.002352 0.999996 -0.001451
vn 0.002351 0.999996 -0.001451
vn 0.002351 0.999996 -0.001451
vn 0.002351 0.999996 -0.001451
vn 0.002351 0.999996 -0.001451
vn 0.002351 0.999996 -0.00145
vn 0.002352 0.999996 -0.00145
vn 0.002352 0.999996 -0.001451
vn 0.002352 0.999996 -0.00145
vn 0.002352 0.999996 -0.00145
vn 0.002352 0.999996 -0.001451
vn 0.002351 0.999996 -0.001451
vn 0.002351 0.999996 -0.001451
vn 0.002352 0.999996 -0.00145
vn 0.002351 0.999996 -0.00145
vn 0.002351 0.999996 -0.00145
vn 0.002352 0.999996 -0.00145
vn 0.002352 0.999996 -0.00145
vn 0.999993 -0.002234 -0.003115
vn 0.999993 -0.002234 -0.003114
vn 0.999993 -0.002234 -0.003114
vn 0.999993 -0.002234 -0.003114
vn 0.999993 -0.002234 -0.003114
vn 0.999993 -0.002234 -0.003114
vn 0.000598 0.007998 0.999968
vn 0.000599 0.008001 0.999968
vn 0.000599 0.008001 0.999968
vn 0.000599 0.008001 0.999968
vn 0.000599 0.008001 0.999968
vn 0.000601 0.008003 0.999968
vn 0.002351 0.999996 -0.001451
vn 0.002351 0.999996 -0.00145
vn 0.002351 0.999996 -0.001451
vn 0.002351 0.999996 -0.001451
vn 0.002351 0.999996 -0.00145
vn 0.002351 0.999996 -0.001451
vn 0.000601 0.008002 0.999968
vn 0.0006 0.008002 0.999968
vn 0.000601 0.008002 0.999968
vn 0.000601 0.008002 0.999968
vn 0.0006 0.008002 0.999968
vn 0.0006 0.008002 0.999968

# DrawCall_58, 38 grouped triangles

usemtl treasure_star
o DrawCall_58
g DrawCall_58

f 2/1/1 1/2/2 3/3/3
f 1/4/4 4/5/5 3/6/6
f 6/7/7 5/8/8 7/9/9
f 5/10/10 8/11/11 7/12/12
f 8/13/13 9/14/14 7/15/15
f 9/16/16 10/17/17 7/18/18
f 2/19/19 9/20/20 11/21/21
f 8/22/22 11/23/23 9/24/24
f 13/25/25 12/26/26 5/27/27
f 8/28/28 5/29/29 12/30/30
f 15/31/31 14/32/32 16/33/33
f 17/34/34 16/35/35 14/36/36
f 2/37/37 18/38/38 1/39/39
f 15/40/40 1/41/41 18/42/42
f 13/43/43 19/44/44 20/45/45
f 17/46/46 20/47/47 19/48/48
f 10/49/49 4/50/50 6/51/51
f 21/52/52 6/53/53 4/54/54
f 22/55/55 21/56/56 4/57/57
f 23/58/58 22/59/59 4/60/60
f 24/61/61 21/62/62 22/63/63
f 25/64/64 6/65/65 21/66/66
f 3/67/67 4/68/68 10/69/69
f 7/70/70 10/71/71 6/72/72
f 1/73/73 15/74/74 23/75/75
f 4/76/76 1/77/77 23/78/78
f 19/79/79 13/80/80 25/81/81
f 21/82/82 19/83/83 25/84/84
f 9/85/85 2/86/86 3/87/87
f 10/88/88 9/89/89 3/90/90
f 16/91/91 22/92/92 23/93/93
f 15/94/94 16/95/95 23/96/96
f 19/97/97 21/98/98 24/99/99
f 17/100/100 19/101/101 24/102/102
f 13/103/103 5/104/104 25/105/105
f 5/106/106 6/107/107 25/108/108
f 22/109/109 16/110/110 24/111/111
f 16/112/112 17/113/113 24/114/114
# DrawCall_59, 2 grouped triangles

usemtl treasure_stareye
o DrawCall_59
g DrawCall_59

f 27/115/115 26/116/116 28/117/117
f 29/118/118 28/119/119 26/120/120
# DrawCall_60, 16 grouped triangles

usemtl treasure_line
o DrawCall_60
g DrawCall_60

f 31/121/121 30/122/122 32/123/123
f 32/124/124 30/125/125 33/126/126
f 35/127/127 34/128/128 36/129/129
f 36/130/130 34/131/131 37/132/132
f 38/133/133 35/134/134 39/135/135
f 39/136/136 35/137/137 36/138/138
f 30/139/139 40/140/140 33/141/141
f 33/142/142 40/143/143 41/144/144
f 31/145/145 34/146/146 30/147/147
f 30/148/148 34/149/149 40/150/150
f 32/163/163 37/164/164 31/165/165
f 31/166/166 37/167/167 34/168/168
f 39/169/169 41/170/170 38/171/171
f 38/172/172 41/173/173 40/174/174
f 38/175/175 40/176/176 35/177/177
f 35/178/178 40/179/179 34/180/180
# DrawCall_61, 4 grouped triangles

usemtl treasure_starrock
o DrawCall_61
g DrawCall_61

f 36/151/151 37/152/152 39/153/153
f 39/154/154 37/155/155 41/156/156
f 33/157/157 41/158/158 32/159/159
f 32/160/160 41/161/161 37/162/162
# DrawCall_63, 4 grouped triangles

usemtl treasure_d
o DrawCall_63
g DrawCall_63

f 43/181/181 42/182/182 44/183/183
f 44/184/184 42/185/185 45/186/186
f 50/193/193 47/194/194 51/195/195
f 51/196/196 47/197/197 48/198/198
# DrawCall_64, 4 grouped triangles

usemtl treasure_face
o DrawCall_64
g DrawCall_64

f 47/187/187 46/188/188 48/189/189
f 48/190/190 46/191/191 49/192/192
f 44/259/259 49/260/260 43/261/261
f 43/262/262 49/263/263 46/264/264
# DrawCall_66, 20 grouped triangles

usemtl treasure_starrock
o DrawCall_66
g DrawCall_66

f 42/199/199 50/200/200 45/201/201
f 45/202/202 50/203/203 51/204/204
f 53/205/205 52/206/206 54/207/207
f 54/208/208 52/209/209 55/210/210
f 54/211/211 55/212/212 56/213/213
f 56/214/214 55/215/215 57/216/216
f 44/217/217 45/218/218 53/219/219
f 53/220/220 45/221/221 52/222/222
f 48/223/223 49/224/224 58/225/225
f 58/226/226 49/227/227 59/228/228
f 51/229/229 48/230/230 60/231/231
f 60/232/232 48/233/233 58/234/234
f 45/235/235 51/236/236 52/237/237
f 52/238/238 51/239/239 60/240/240
f 60/241/241 58/242/242 57/243/243
f 57/244/244 58/245/245 56/246/246
f 52/247/247 60/248/248 55/249/249
f 55/250/250 60/251/251 57/252/252
f 53/253/253 59/254/254 44/255/255
f 44/256/256 59/257/257 49/258/258
